<mxfile host="app.diagrams.net" modified="2021-09-02T01:06:39.882Z" agent="5.0 (Windows NT 10.0; Win64; x64) AppleWebKit/537.36 (KHTML, like Gecko) Chrome/92.0.4515.159 Safari/537.36 Edg/92.0.902.84" etag="-pYjSNxicKZK1-pIeHqF" version="15.0.4" type="github">
  <diagram id="dfvJW5Lfn74AIO5DTFk8" name="Page-1">
    <mxGraphModel dx="1865" dy="588" grid="1" gridSize="10" guides="1" tooltips="1" connect="1" arrows="1" fold="1" page="1" pageScale="1" pageWidth="827" pageHeight="1169" math="0" shadow="0">
      <root>
        <mxCell id="0" />
        <mxCell id="1" parent="0" />
        <mxCell id="IlQXqACcSyshX6tL7N-D-1" value="&amp;lt;스타트업&amp;gt;" style="text;html=1;resizable=0;autosize=1;align=center;verticalAlign=middle;points=[];fillColor=none;strokeColor=none;rounded=0;" parent="1" vertex="1">
          <mxGeometry x="-10" y="20" width="80" height="20" as="geometry" />
        </mxCell>
        <mxCell id="IlQXqACcSyshX6tL7N-D-8" value="" style="edgeStyle=orthogonalEdgeStyle;rounded=0;orthogonalLoop=1;jettySize=auto;html=1;" parent="1" source="IlQXqACcSyshX6tL7N-D-2" target="IlQXqACcSyshX6tL7N-D-7" edge="1">
          <mxGeometry relative="1" as="geometry" />
        </mxCell>
        <mxCell id="IlQXqACcSyshX6tL7N-D-26" value="" style="edgeStyle=orthogonalEdgeStyle;rounded=0;orthogonalLoop=1;jettySize=auto;html=1;" parent="1" source="IlQXqACcSyshX6tL7N-D-2" edge="1">
          <mxGeometry relative="1" as="geometry">
            <mxPoint x="80" y="150" as="targetPoint" />
          </mxGeometry>
        </mxCell>
        <mxCell id="IlQXqACcSyshX6tL7N-D-2" value="투자프로필 등록" style="rounded=0;whiteSpace=wrap;html=1;" parent="1" vertex="1">
          <mxGeometry x="30" y="50" width="100" height="40" as="geometry" />
        </mxCell>
        <mxCell id="IlQXqACcSyshX6tL7N-D-10" value="" style="edgeStyle=orthogonalEdgeStyle;rounded=0;orthogonalLoop=1;jettySize=auto;html=1;" parent="1" source="IlQXqACcSyshX6tL7N-D-7" target="IlQXqACcSyshX6tL7N-D-9" edge="1">
          <mxGeometry relative="1" as="geometry" />
        </mxCell>
        <mxCell id="IlQXqACcSyshX6tL7N-D-7" value="일괄 투자검토&lt;br&gt;요청" style="whiteSpace=wrap;html=1;rounded=0;" parent="1" vertex="1">
          <mxGeometry x="200" y="50" width="100" height="40" as="geometry" />
        </mxCell>
        <mxCell id="IlQXqACcSyshX6tL7N-D-14" value="" style="edgeStyle=orthogonalEdgeStyle;rounded=0;orthogonalLoop=1;jettySize=auto;html=1;" parent="1" source="IlQXqACcSyshX6tL7N-D-9" edge="1">
          <mxGeometry relative="1" as="geometry">
            <mxPoint x="480" y="70" as="targetPoint" />
          </mxGeometry>
        </mxCell>
        <mxCell id="IlQXqACcSyshX6tL7N-D-9" value="투자검토&lt;br&gt;수락여부" style="rhombus;whiteSpace=wrap;html=1;rounded=0;fontSize=10;" parent="1" vertex="1">
          <mxGeometry x="360" y="35" width="70" height="70" as="geometry" />
        </mxCell>
        <mxCell id="IlQXqACcSyshX6tL7N-D-11" value="종료" style="whiteSpace=wrap;html=1;rounded=0;" parent="1" vertex="1">
          <mxGeometry x="730" y="170" width="82.5" height="40" as="geometry" />
        </mxCell>
        <mxCell id="IlQXqACcSyshX6tL7N-D-15" value="YES" style="text;html=1;resizable=0;autosize=1;align=center;verticalAlign=middle;points=[];fillColor=none;strokeColor=none;rounded=0;" parent="1" vertex="1">
          <mxGeometry x="420" y="80" width="40" height="20" as="geometry" />
        </mxCell>
        <mxCell id="IlQXqACcSyshX6tL7N-D-16" value="NO" style="text;html=1;resizable=0;autosize=1;align=center;verticalAlign=middle;points=[];fillColor=none;strokeColor=none;rounded=0;" parent="1" vertex="1">
          <mxGeometry x="399" y="100" width="30" height="20" as="geometry" />
        </mxCell>
        <mxCell id="IlQXqACcSyshX6tL7N-D-17" value="추가자료 요청 수락여부" style="rhombus;whiteSpace=wrap;html=1;rounded=0;fontSize=10;" parent="1" vertex="1">
          <mxGeometry x="480" y="35" width="70" height="70" as="geometry" />
        </mxCell>
        <mxCell id="IlQXqACcSyshX6tL7N-D-18" value="NO" style="text;html=1;resizable=0;autosize=1;align=center;verticalAlign=middle;points=[];fillColor=none;strokeColor=none;rounded=0;" parent="1" vertex="1">
          <mxGeometry x="520" y="100" width="30" height="20" as="geometry" />
        </mxCell>
        <mxCell id="IlQXqACcSyshX6tL7N-D-19" value="YES" style="text;html=1;resizable=0;autosize=1;align=center;verticalAlign=middle;points=[];fillColor=none;strokeColor=none;rounded=0;" parent="1" vertex="1">
          <mxGeometry x="540" y="80" width="40" height="20" as="geometry" />
        </mxCell>
        <mxCell id="IlQXqACcSyshX6tL7N-D-20" value="" style="edgeStyle=orthogonalEdgeStyle;rounded=0;orthogonalLoop=1;jettySize=auto;html=1;" parent="1" edge="1">
          <mxGeometry relative="1" as="geometry">
            <mxPoint x="550" y="70" as="sourcePoint" />
            <mxPoint x="600" y="70" as="targetPoint" />
          </mxGeometry>
        </mxCell>
        <mxCell id="IlQXqACcSyshX6tL7N-D-22" value="" style="endArrow=none;html=1;" parent="1" edge="1">
          <mxGeometry width="50" height="50" relative="1" as="geometry">
            <mxPoint x="515" y="190" as="sourcePoint" />
            <mxPoint x="514.5" y="105" as="targetPoint" />
          </mxGeometry>
        </mxCell>
        <mxCell id="IlQXqACcSyshX6tL7N-D-23" value="" style="endArrow=classic;html=1;" parent="1" edge="1">
          <mxGeometry width="50" height="50" relative="1" as="geometry">
            <mxPoint x="510" y="190" as="sourcePoint" />
            <mxPoint x="726.25" y="190" as="targetPoint" />
          </mxGeometry>
        </mxCell>
        <mxCell id="IlQXqACcSyshX6tL7N-D-28" value="" style="edgeStyle=orthogonalEdgeStyle;rounded=0;orthogonalLoop=1;jettySize=auto;html=1;" parent="1" source="IlQXqACcSyshX6tL7N-D-25" target="IlQXqACcSyshX6tL7N-D-27" edge="1">
          <mxGeometry relative="1" as="geometry" />
        </mxCell>
        <mxCell id="IlQXqACcSyshX6tL7N-D-25" value="투자사 탐색" style="whiteSpace=wrap;html=1;rounded=0;" parent="1" vertex="1">
          <mxGeometry x="30" y="150" width="100" height="40" as="geometry" />
        </mxCell>
        <mxCell id="IlQXqACcSyshX6tL7N-D-30" value="" style="edgeStyle=orthogonalEdgeStyle;rounded=0;orthogonalLoop=1;jettySize=auto;html=1;" parent="1" source="IlQXqACcSyshX6tL7N-D-27" target="IlQXqACcSyshX6tL7N-D-29" edge="1">
          <mxGeometry relative="1" as="geometry" />
        </mxCell>
        <mxCell id="IlQXqACcSyshX6tL7N-D-27" value="개별 투자검토 요청" style="whiteSpace=wrap;html=1;rounded=0;" parent="1" vertex="1">
          <mxGeometry x="30" y="250" width="100" height="40" as="geometry" />
        </mxCell>
        <mxCell id="IlQXqACcSyshX6tL7N-D-31" style="edgeStyle=orthogonalEdgeStyle;rounded=0;orthogonalLoop=1;jettySize=auto;html=1;entryX=1;entryY=0.5;entryDx=0;entryDy=0;" parent="1" source="IlQXqACcSyshX6tL7N-D-29" target="IlQXqACcSyshX6tL7N-D-25" edge="1">
          <mxGeometry relative="1" as="geometry">
            <Array as="points">
              <mxPoint x="225" y="170" />
            </Array>
          </mxGeometry>
        </mxCell>
        <mxCell id="IlQXqACcSyshX6tL7N-D-29" value="투자검토 &lt;br style=&quot;font-size: 10px;&quot;&gt;수락여부" style="rhombus;whiteSpace=wrap;html=1;rounded=0;fontSize=10;" parent="1" vertex="1">
          <mxGeometry x="190" y="235" width="70" height="70" as="geometry" />
        </mxCell>
        <mxCell id="IlQXqACcSyshX6tL7N-D-32" value="NO" style="text;html=1;resizable=0;autosize=1;align=center;verticalAlign=middle;points=[];fillColor=none;strokeColor=none;rounded=0;" parent="1" vertex="1">
          <mxGeometry x="228.75" y="210" width="30" height="20" as="geometry" />
        </mxCell>
        <mxCell id="IlQXqACcSyshX6tL7N-D-33" value="YES" style="text;html=1;resizable=0;autosize=1;align=center;verticalAlign=middle;points=[];fillColor=none;strokeColor=none;rounded=0;" parent="1" vertex="1">
          <mxGeometry x="245" y="281" width="40" height="20" as="geometry" />
        </mxCell>
        <mxCell id="IlQXqACcSyshX6tL7N-D-35" value="IR자료전달/검토" style="text;html=1;resizable=0;autosize=1;align=center;verticalAlign=middle;points=[];fillColor=none;strokeColor=none;rounded=0;fontSize=10;" parent="1" vertex="1">
          <mxGeometry x="290" y="35" width="90" height="20" as="geometry" />
        </mxCell>
        <mxCell id="IlQXqACcSyshX6tL7N-D-36" value="추가자료요청(+코멘트)" style="text;html=1;resizable=0;autosize=1;align=center;verticalAlign=middle;points=[];fillColor=none;strokeColor=none;rounded=0;fontSize=10;" parent="1" vertex="1">
          <mxGeometry x="394" y="30" width="120" height="20" as="geometry" />
        </mxCell>
        <mxCell id="IlQXqACcSyshX6tL7N-D-37" value="" style="edgeStyle=orthogonalEdgeStyle;rounded=0;orthogonalLoop=1;jettySize=auto;html=1;" parent="1" edge="1">
          <mxGeometry relative="1" as="geometry">
            <mxPoint x="260" y="269.5" as="sourcePoint" />
            <mxPoint x="310" y="269.5" as="targetPoint" />
          </mxGeometry>
        </mxCell>
        <mxCell id="IlQXqACcSyshX6tL7N-D-39" value="추가자료 요청 수락여부" style="rhombus;whiteSpace=wrap;html=1;rounded=0;fontSize=10;" parent="1" vertex="1">
          <mxGeometry x="310" y="235" width="70" height="70" as="geometry" />
        </mxCell>
        <mxCell id="IlQXqACcSyshX6tL7N-D-40" value="NO" style="text;html=1;resizable=0;autosize=1;align=center;verticalAlign=middle;points=[];fillColor=none;strokeColor=none;rounded=0;" parent="1" vertex="1">
          <mxGeometry x="350" y="215" width="30" height="20" as="geometry" />
        </mxCell>
        <mxCell id="IlQXqACcSyshX6tL7N-D-41" style="edgeStyle=orthogonalEdgeStyle;rounded=0;orthogonalLoop=1;jettySize=auto;html=1;entryX=1;entryY=0.25;entryDx=0;entryDy=0;" parent="1" target="IlQXqACcSyshX6tL7N-D-25" edge="1">
          <mxGeometry relative="1" as="geometry">
            <mxPoint x="344.5" y="235" as="sourcePoint" />
            <mxPoint x="249.5" y="170" as="targetPoint" />
            <Array as="points">
              <mxPoint x="345" y="160" />
            </Array>
          </mxGeometry>
        </mxCell>
        <mxCell id="IlQXqACcSyshX6tL7N-D-42" value="" style="edgeStyle=orthogonalEdgeStyle;rounded=0;orthogonalLoop=1;jettySize=auto;html=1;" parent="1" edge="1">
          <mxGeometry relative="1" as="geometry">
            <mxPoint x="379" y="269.5" as="sourcePoint" />
            <mxPoint x="429" y="269.5" as="targetPoint" />
          </mxGeometry>
        </mxCell>
        <mxCell id="IlQXqACcSyshX6tL7N-D-43" value="YES" style="text;html=1;resizable=0;autosize=1;align=center;verticalAlign=middle;points=[];fillColor=none;strokeColor=none;rounded=0;" parent="1" vertex="1">
          <mxGeometry x="367.5" y="281" width="40" height="20" as="geometry" />
        </mxCell>
        <mxCell id="IlQXqACcSyshX6tL7N-D-44" value="미팅일 확정 / 추후 알림" style="rounded=0;whiteSpace=wrap;html=1;" parent="1" vertex="1">
          <mxGeometry x="827" y="370" width="100" height="40" as="geometry" />
        </mxCell>
        <mxCell id="IlQXqACcSyshX6tL7N-D-45" value="IR자료전달/검토" style="text;html=1;resizable=0;autosize=1;align=center;verticalAlign=middle;points=[];fillColor=none;strokeColor=none;rounded=0;fontSize=10;" parent="1" vertex="1">
          <mxGeometry x="120" y="235" width="90" height="20" as="geometry" />
        </mxCell>
        <mxCell id="IlQXqACcSyshX6tL7N-D-46" value="&amp;lt;투자사&amp;gt;" style="text;html=1;resizable=0;autosize=1;align=center;verticalAlign=middle;points=[];fillColor=none;strokeColor=none;rounded=0;" parent="1" vertex="1">
          <mxGeometry y="340" width="70" height="20" as="geometry" />
        </mxCell>
        <mxCell id="IlQXqACcSyshX6tL7N-D-49" value="" style="edgeStyle=orthogonalEdgeStyle;rounded=0;orthogonalLoop=1;jettySize=auto;html=1;fontSize=10;" parent="1" source="IlQXqACcSyshX6tL7N-D-47" target="IlQXqACcSyshX6tL7N-D-48" edge="1">
          <mxGeometry relative="1" as="geometry" />
        </mxCell>
        <mxCell id="IlQXqACcSyshX6tL7N-D-47" value="투자프로필 등록" style="rounded=0;whiteSpace=wrap;html=1;" parent="1" vertex="1">
          <mxGeometry x="30" y="370" width="100" height="40" as="geometry" />
        </mxCell>
        <mxCell id="IlQXqACcSyshX6tL7N-D-48" value="스타트업 탐색" style="whiteSpace=wrap;html=1;rounded=0;" parent="1" vertex="1">
          <mxGeometry x="190" y="370" width="90" height="40" as="geometry" />
        </mxCell>
        <mxCell id="IlQXqACcSyshX6tL7N-D-50" value="" style="edgeStyle=orthogonalEdgeStyle;rounded=0;orthogonalLoop=1;jettySize=auto;html=1;fontSize=10;" parent="1" target="IlQXqACcSyshX6tL7N-D-51" edge="1">
          <mxGeometry relative="1" as="geometry">
            <mxPoint x="279" y="390" as="sourcePoint" />
          </mxGeometry>
        </mxCell>
        <mxCell id="IlQXqACcSyshX6tL7N-D-80" value="" style="edgeStyle=orthogonalEdgeStyle;rounded=0;orthogonalLoop=1;jettySize=auto;html=1;fontSize=10;" parent="1" source="IlQXqACcSyshX6tL7N-D-51" target="IlQXqACcSyshX6tL7N-D-79" edge="1">
          <mxGeometry relative="1" as="geometry" />
        </mxCell>
        <mxCell id="IlQXqACcSyshX6tL7N-D-51" value="IR자료요청" style="whiteSpace=wrap;html=1;rounded=0;" parent="1" vertex="1">
          <mxGeometry x="339" y="370" width="90" height="40" as="geometry" />
        </mxCell>
        <mxCell id="IlQXqACcSyshX6tL7N-D-52" value="" style="edgeStyle=orthogonalEdgeStyle;rounded=0;orthogonalLoop=1;jettySize=auto;html=1;" parent="1" edge="1">
          <mxGeometry relative="1" as="geometry">
            <mxPoint x="670" y="69.5" as="sourcePoint" />
            <mxPoint x="720" y="69.5" as="targetPoint" />
          </mxGeometry>
        </mxCell>
        <mxCell id="IlQXqACcSyshX6tL7N-D-53" value="미팅일 확정 /&lt;br&gt;추후 알림" style="rounded=0;whiteSpace=wrap;html=1;" parent="1" vertex="1">
          <mxGeometry x="721.25" y="50" width="100" height="40" as="geometry" />
        </mxCell>
        <mxCell id="IlQXqACcSyshX6tL7N-D-54" value="미팅일 제안(달력)" style="text;html=1;resizable=0;autosize=1;align=center;verticalAlign=middle;points=[];fillColor=none;strokeColor=none;rounded=0;fontSize=10;" parent="1" vertex="1">
          <mxGeometry x="530" y="35" width="90" height="20" as="geometry" />
        </mxCell>
        <mxCell id="IlQXqACcSyshX6tL7N-D-55" value="미팅일 &lt;br&gt;수락여부" style="rhombus;whiteSpace=wrap;html=1;rounded=0;fontSize=10;" parent="1" vertex="1">
          <mxGeometry x="600" y="35" width="70" height="70" as="geometry" />
        </mxCell>
        <mxCell id="IlQXqACcSyshX6tL7N-D-56" value="YES" style="text;html=1;resizable=0;autosize=1;align=center;verticalAlign=middle;points=[];fillColor=none;strokeColor=none;rounded=0;" parent="1" vertex="1">
          <mxGeometry x="660" y="80" width="40" height="20" as="geometry" />
        </mxCell>
        <mxCell id="IlQXqACcSyshX6tL7N-D-57" value="" style="endArrow=none;html=1;" parent="1" edge="1">
          <mxGeometry width="50" height="50" relative="1" as="geometry">
            <mxPoint x="635" y="180" as="sourcePoint" />
            <mxPoint x="635.25" y="105" as="targetPoint" />
          </mxGeometry>
        </mxCell>
        <mxCell id="IlQXqACcSyshX6tL7N-D-58" value="" style="endArrow=classic;html=1;" parent="1" edge="1">
          <mxGeometry width="50" height="50" relative="1" as="geometry">
            <mxPoint x="635" y="180" as="sourcePoint" />
            <mxPoint x="725" y="180" as="targetPoint" />
            <Array as="points">
              <mxPoint x="708" y="180" />
            </Array>
          </mxGeometry>
        </mxCell>
        <mxCell id="IlQXqACcSyshX6tL7N-D-60" value="미팅일 &lt;br&gt;수락여부" style="rhombus;whiteSpace=wrap;html=1;rounded=0;fontSize=10;" parent="1" vertex="1">
          <mxGeometry x="430" y="235" width="70" height="70" as="geometry" />
        </mxCell>
        <mxCell id="IlQXqACcSyshX6tL7N-D-61" value="NO" style="text;html=1;resizable=0;autosize=1;align=center;verticalAlign=middle;points=[];fillColor=none;strokeColor=none;rounded=0;" parent="1" vertex="1">
          <mxGeometry x="640" y="105" width="30" height="20" as="geometry" />
        </mxCell>
        <mxCell id="IlQXqACcSyshX6tL7N-D-62" value="" style="endArrow=none;html=1;" parent="1" edge="1">
          <mxGeometry width="50" height="50" relative="1" as="geometry">
            <mxPoint x="480" y="200" as="sourcePoint" />
            <mxPoint x="480" y="120" as="targetPoint" />
          </mxGeometry>
        </mxCell>
        <mxCell id="IlQXqACcSyshX6tL7N-D-63" value="" style="endArrow=classic;html=1;" parent="1" edge="1">
          <mxGeometry width="50" height="50" relative="1" as="geometry">
            <mxPoint x="480" y="200" as="sourcePoint" />
            <mxPoint x="725" y="200" as="targetPoint" />
            <Array as="points">
              <mxPoint x="708" y="200" />
            </Array>
          </mxGeometry>
        </mxCell>
        <mxCell id="IlQXqACcSyshX6tL7N-D-65" value="" style="endArrow=none;html=1;" parent="1" edge="1">
          <mxGeometry width="50" height="50" relative="1" as="geometry">
            <mxPoint x="480" y="120" as="sourcePoint" />
            <mxPoint x="390" y="120" as="targetPoint" />
          </mxGeometry>
        </mxCell>
        <mxCell id="IlQXqACcSyshX6tL7N-D-70" value="" style="endArrow=none;html=1;fontSize=10;" parent="1" edge="1">
          <mxGeometry width="50" height="50" relative="1" as="geometry">
            <mxPoint x="394.5" y="105" as="sourcePoint" />
            <mxPoint x="395" y="120" as="targetPoint" />
          </mxGeometry>
        </mxCell>
        <mxCell id="IlQXqACcSyshX6tL7N-D-71" style="edgeStyle=orthogonalEdgeStyle;rounded=0;orthogonalLoop=1;jettySize=auto;html=1;entryX=1;entryY=0;entryDx=0;entryDy=0;" parent="1" target="IlQXqACcSyshX6tL7N-D-25" edge="1">
          <mxGeometry relative="1" as="geometry">
            <mxPoint x="464.5" y="235" as="sourcePoint" />
            <mxPoint x="250" y="160" as="targetPoint" />
            <Array as="points">
              <mxPoint x="465" y="150" />
            </Array>
          </mxGeometry>
        </mxCell>
        <mxCell id="IlQXqACcSyshX6tL7N-D-72" value="NO" style="text;html=1;resizable=0;autosize=1;align=center;verticalAlign=middle;points=[];fillColor=none;strokeColor=none;rounded=0;" parent="1" vertex="1">
          <mxGeometry x="470" y="215" width="30" height="20" as="geometry" />
        </mxCell>
        <mxCell id="IlQXqACcSyshX6tL7N-D-73" value="" style="edgeStyle=orthogonalEdgeStyle;rounded=0;orthogonalLoop=1;jettySize=auto;html=1;" parent="1" edge="1">
          <mxGeometry relative="1" as="geometry">
            <mxPoint x="500" y="269.5" as="sourcePoint" />
            <mxPoint x="550" y="269.5" as="targetPoint" />
          </mxGeometry>
        </mxCell>
        <mxCell id="IlQXqACcSyshX6tL7N-D-74" value="미팅일 확정 /&lt;br&gt;추후 알림" style="rounded=0;whiteSpace=wrap;html=1;" parent="1" vertex="1">
          <mxGeometry x="550" y="250" width="100" height="40" as="geometry" />
        </mxCell>
        <mxCell id="IlQXqACcSyshX6tL7N-D-75" value="추후 BM타겟(일주일 간 자동매칭 횟수)" style="text;html=1;resizable=0;autosize=1;align=center;verticalAlign=middle;points=[];fillColor=none;strokeColor=none;rounded=0;fontSize=10;" parent="1" vertex="1">
          <mxGeometry x="70" y="30" width="190" height="20" as="geometry" />
        </mxCell>
        <mxCell id="IlQXqACcSyshX6tL7N-D-76" value="YES" style="text;html=1;resizable=0;autosize=1;align=center;verticalAlign=middle;points=[];fillColor=none;strokeColor=none;rounded=0;" parent="1" vertex="1">
          <mxGeometry x="495" y="281" width="40" height="20" as="geometry" />
        </mxCell>
        <mxCell id="IlQXqACcSyshX6tL7N-D-77" value="투자검토요청 ON" style="text;html=1;resizable=0;autosize=1;align=center;verticalAlign=middle;points=[];fillColor=none;strokeColor=none;rounded=0;fontSize=10;" parent="1" vertex="1">
          <mxGeometry x="80" y="210" width="90" height="20" as="geometry" />
        </mxCell>
        <mxCell id="IlQXqACcSyshX6tL7N-D-78" value="IR자료요청 ON" style="text;html=1;resizable=0;autosize=1;align=center;verticalAlign=middle;points=[];fillColor=none;strokeColor=none;rounded=0;fontSize=10;" parent="1" vertex="1">
          <mxGeometry x="268.75" y="350" width="80" height="20" as="geometry" />
        </mxCell>
        <mxCell id="IlQXqACcSyshX6tL7N-D-82" value="" style="edgeStyle=orthogonalEdgeStyle;rounded=0;orthogonalLoop=1;jettySize=auto;html=1;fontSize=10;exitX=1;exitY=0.5;exitDx=0;exitDy=0;" parent="1" source="IlQXqACcSyshX6tL7N-D-79" target="IlQXqACcSyshX6tL7N-D-81" edge="1">
          <mxGeometry relative="1" as="geometry">
            <mxPoint x="540" y="390" as="sourcePoint" />
          </mxGeometry>
        </mxCell>
        <mxCell id="IlQXqACcSyshX6tL7N-D-85" style="edgeStyle=orthogonalEdgeStyle;rounded=0;orthogonalLoop=1;jettySize=auto;html=1;fontSize=10;" parent="1" source="IlQXqACcSyshX6tL7N-D-79" edge="1">
          <mxGeometry relative="1" as="geometry">
            <mxPoint x="270" y="410" as="targetPoint" />
            <Array as="points">
              <mxPoint x="500" y="445" />
              <mxPoint x="270" y="445" />
              <mxPoint x="270" y="410" />
            </Array>
          </mxGeometry>
        </mxCell>
        <mxCell id="IlQXqACcSyshX6tL7N-D-79" value="IR자료요청&lt;br&gt;수락여부" style="rhombus;whiteSpace=wrap;html=1;rounded=0;fontSize=10;" parent="1" vertex="1">
          <mxGeometry x="465" y="355" width="70" height="70" as="geometry" />
        </mxCell>
        <mxCell id="IlQXqACcSyshX6tL7N-D-84" value="" style="edgeStyle=orthogonalEdgeStyle;rounded=0;orthogonalLoop=1;jettySize=auto;html=1;fontSize=10;" parent="1" source="IlQXqACcSyshX6tL7N-D-81" target="IlQXqACcSyshX6tL7N-D-83" edge="1">
          <mxGeometry relative="1" as="geometry" />
        </mxCell>
        <mxCell id="IlQXqACcSyshX6tL7N-D-92" style="edgeStyle=orthogonalEdgeStyle;rounded=0;orthogonalLoop=1;jettySize=auto;html=1;fontSize=10;" parent="1" source="IlQXqACcSyshX6tL7N-D-81" edge="1">
          <mxGeometry relative="1" as="geometry">
            <mxPoint x="250" y="410" as="targetPoint" />
            <Array as="points">
              <mxPoint x="625" y="480" />
              <mxPoint x="250" y="480" />
              <mxPoint x="250" y="410" />
            </Array>
          </mxGeometry>
        </mxCell>
        <mxCell id="IlQXqACcSyshX6tL7N-D-81" value="추가자료요청&lt;br&gt;수락여부" style="rhombus;whiteSpace=wrap;html=1;rounded=0;fontSize=10;" parent="1" vertex="1">
          <mxGeometry x="590" y="355" width="70" height="70" as="geometry" />
        </mxCell>
        <mxCell id="IlQXqACcSyshX6tL7N-D-93" style="edgeStyle=orthogonalEdgeStyle;rounded=0;orthogonalLoop=1;jettySize=auto;html=1;fontSize=10;" parent="1" source="IlQXqACcSyshX6tL7N-D-83" target="IlQXqACcSyshX6tL7N-D-48" edge="1">
          <mxGeometry relative="1" as="geometry">
            <Array as="points">
              <mxPoint x="745" y="520" />
              <mxPoint x="230" y="520" />
            </Array>
          </mxGeometry>
        </mxCell>
        <mxCell id="IlQXqACcSyshX6tL7N-D-94" value="" style="edgeStyle=orthogonalEdgeStyle;rounded=0;orthogonalLoop=1;jettySize=auto;html=1;fontSize=10;" parent="1" source="IlQXqACcSyshX6tL7N-D-83" target="IlQXqACcSyshX6tL7N-D-44" edge="1">
          <mxGeometry relative="1" as="geometry" />
        </mxCell>
        <mxCell id="IlQXqACcSyshX6tL7N-D-83" value="미팅일 제안&lt;br&gt;수락여부" style="rhombus;whiteSpace=wrap;html=1;rounded=0;fontSize=10;" parent="1" vertex="1">
          <mxGeometry x="710" y="355" width="70" height="70" as="geometry" />
        </mxCell>
        <mxCell id="IlQXqACcSyshX6tL7N-D-86" value="NO" style="text;html=1;resizable=0;autosize=1;align=center;verticalAlign=middle;points=[];fillColor=none;strokeColor=none;rounded=0;" parent="1" vertex="1">
          <mxGeometry x="505" y="425" width="30" height="20" as="geometry" />
        </mxCell>
        <mxCell id="IlQXqACcSyshX6tL7N-D-87" value="YES" style="text;html=1;resizable=0;autosize=1;align=center;verticalAlign=middle;points=[];fillColor=none;strokeColor=none;rounded=0;" parent="1" vertex="1">
          <mxGeometry x="520" y="400" width="40" height="20" as="geometry" />
        </mxCell>
        <mxCell id="IlQXqACcSyshX6tL7N-D-88" value="YES" style="text;html=1;resizable=0;autosize=1;align=center;verticalAlign=middle;points=[];fillColor=none;strokeColor=none;rounded=0;" parent="1" vertex="1">
          <mxGeometry x="650" y="400" width="40" height="20" as="geometry" />
        </mxCell>
        <mxCell id="IlQXqACcSyshX6tL7N-D-89" value="NO" style="text;html=1;resizable=0;autosize=1;align=center;verticalAlign=middle;points=[];fillColor=none;strokeColor=none;rounded=0;" parent="1" vertex="1">
          <mxGeometry x="630" y="425" width="30" height="20" as="geometry" />
        </mxCell>
        <mxCell id="IlQXqACcSyshX6tL7N-D-90" value="NO" style="text;html=1;resizable=0;autosize=1;align=center;verticalAlign=middle;points=[];fillColor=none;strokeColor=none;rounded=0;" parent="1" vertex="1">
          <mxGeometry x="750" y="425" width="30" height="20" as="geometry" />
        </mxCell>
        <mxCell id="IlQXqACcSyshX6tL7N-D-91" value="YES" style="text;html=1;resizable=0;autosize=1;align=center;verticalAlign=middle;points=[];fillColor=none;strokeColor=none;rounded=0;" parent="1" vertex="1">
          <mxGeometry x="750" y="340" width="40" height="20" as="geometry" />
        </mxCell>
        <mxCell id="IlQXqACcSyshX6tL7N-D-100" value="" style="endArrow=none;dashed=1;html=1;fontSize=10;" parent="1" edge="1">
          <mxGeometry width="50" height="50" relative="1" as="geometry">
            <mxPoint x="30" y="69.5" as="sourcePoint" />
            <mxPoint x="-30" y="70" as="targetPoint" />
          </mxGeometry>
        </mxCell>
        <mxCell id="IlQXqACcSyshX6tL7N-D-101" value="" style="shape=image;verticalLabelPosition=bottom;labelBackgroundColor=#ffffff;verticalAlign=top;aspect=fixed;imageAspect=0;image=data:image/png,iVBORw0KGgoAAAANSUhEUgAAADAAAAAmCAYAAACCjRgBAAAHOUlEQVRYCdWZZ2gVWxCAY42dxCgWrFExVhSN2HtH8I/5oUSDiopgB1ETxfJDRey9KxqTWGPBiomgInZBVOwFezf2PvIN7yx7dzfee303z7yBye7dc86c6TPnJEz+5xAWLP+fP3+Ws2fPyunTp+Xo0aMyc+ZMGTBggCQkJCj269dPwL59+yqa32acubNmzZJjx44pjXPnzsnXr1+DZcOa71eA27dvy/bt22XUqFHSrl07qVmzpoSFhYUUa9WqpbTHjBmje927d89i0N+LpwBv376V1atXK9GiRYu6mC1RooSUK1dONY5go0ePVpw4caJaZNWqVZKamqq4cuVKmTFjhiQlJVnzWINFoAEtp0KKFy8uXbp0kXXr1snHjx9/K4NLgB07dkjVqlUtovny5ZO6devKlClTZN68eXLjxg15+fKlZGVl/ZZwIIPQgNbNmzeV9tSpU6VOnTqSP39+a38svnv37mzJ+QiApow2YHru3Lly+fLlbBfn1MCVK1dkzpw5Urt2bYufZcuWeW5nCfD06VPBdAUKFFA3IFj/Nnz69EkmTZokeEHZsmXl3bt3LpYsAa5du6bSli9fPiTu4drpDz88fPhQSpUqJYUKFZJnz565qFgCXL9+XcLDw1UITLd27Vq/AeSiFsIPxMfSpUulWrVqylNUVJQ8f/7ctYOnACYOYmJiZMSIEZKeni4vXrxwLQ71h8ePH+tegwcPlujoaMv/8+TJIyVLlvQvABNbtmyphcZIboQpXbq0IBApcOHChbJkyRI5c+aMvHnzxgfxWyeQCp3zTpw4IYsWLVJaQ4cOVdqRkZEW0+xLfZg/f740bNhQvcOvBVjUuXNn3f/Dhw+qDSxQo0YNDSQjjP1ZpEgRYWOD1atXl+bNm0vHjh0VmzVrpto04zwLFy7sw6ihhwuz19ixY2Xfvn1ilBEbG6v7ByRAhw4dnAqUnz9/Cqlt69atsmLFCmWsTZs20qJFCylTpownM4Ypr2eFChXU0tDo2rWrFixoUw/YywmNGjXS2hCQAFTAYACiJ0+eDApxp2AgYAvkzZtX0A7azi2AcgjgYsWK+Q9ik0YpaOPGjRNS69+CS5cuybBhw6RgwYLqogGnUTKR8VuqMsFItjh06JDkZHV+//69Bi6tNl2v4YFnUGm0bdu2kpaWppnEToR3cjPNVv/+/WXx4sWKFLyLFy9q9ab4+EP6fzpds75Pnz5Ks1KlSj5M487t27cXmkv6MpQZUBB36tRJvYZscP78ea0JELJ3qE7B+E1bTIrE1E7Ehxnzap3ttFBQt27ddE9cyACpnXn0a07wqcRMwmW8gFPTkSNHZMuWLdqlQrR169bSqlUradCggfYqdma83jlbkBJZw9ru3burJaB5/Phxr2312+vXr2XXrl1CbXKCSwC0/Sdw69YtwT3IGlRZO/INa969e9cvaWhs3LhR1q9fLxs2bJDMzMzfrvERgIMEVZIY+K/h8OHD0rRpU584MFbEwjt37vRkyUcAWlaziODKyMiQL1++eC4M5cdp06bpvgQq52I0f+rUKdm8ebNwSouIiNDx+Ph41wWAjwAQoPe29yr16tWTIUOGyN69e+XChQuh5FtpzZ49W5nr2bOn3Llzx5M+2QceUC5PO/gIwAQC6+rVqzJo0CBLcmMVnpwVEIpx+nWDKSkp2ssQcLQKJp3yG3zw4IEGIvONO9y/f1/TI0Ht1QPZGeW9V69eKsTBgwetIZcA9mYOybdt2yaTJ0+W+vXrS8WKFZWAXSDnO9UcC9Klgrgl1dReIEeOHKkMGK06Lfvjxw/p3bu3DBw40EcwzgukYgRmDuASILs0ymSTSgnyTZs2aann/ADSmTZp0kR7d84NnCdAenpSJ2O02RRKbja+f/8uVapU0THlxPYHa5ByaWmcEBcXp0p89eqVDlkCmDMxZfzfAszRdoDZuQbVG+uNHz/e2o5TH3dB3I7QvCEENyOkVHOgp+1mHWkZsATAPJiaQOZiKqeBq0UYmTBhgrUV2cfpkuY3N4TAgQMHdM6ePXv0tyUAmiIQzQLcguMclskJ4LYBDXP+NYCW0TZ3QsYC9Ez79++3fJ7LNXg014+WAIYIQeu8/ySwyc8QQnO4SCigcePG2iOZgLTTJPgRwgnEE4FsXMolAAtobZOTkzVt2WuCsU7lypW1QyQwhw8fLtyaLV++PCAkA5EAANZA0+vWLTExUdasWeMTQ9Qi5rOnAU8BzCDPJ0+e6Fl4+vTpeuFK20u3aYT5kyeZiYz27ds3rSsoyQSlfW/7OzHAZTA3dI8ePbKG/ApgzfznhU25LcCdiBmDaJHcTar0Qv5PwDmA+dxcmxaFGkCrQAIh+3DZawcEJS5MO8FVvx2CFsC+OFTvdKDc/WBNGOUqpkePHlqwqBV85zyCCzkhVwgAUwQymuZARTXHIjwJ2gULFmhcOpnnd64RwM4c/2AxaP/u9Z4rBfBiNLtvvwA4uY2TXQ3xdAAAAABJRU5ErkJggg==;" parent="1" vertex="1">
          <mxGeometry x="-70" y="55" width="37.89" height="30" as="geometry" />
        </mxCell>
        <mxCell id="IlQXqACcSyshX6tL7N-D-102" value="" style="shape=image;verticalLabelPosition=bottom;labelBackgroundColor=#ffffff;verticalAlign=top;aspect=fixed;imageAspect=0;image=data:image/png,iVBORw0KGgoAAAANSUhEUgAAADAAAAAmCAYAAACCjRgBAAAHOUlEQVRYCdWZZ2gVWxCAY42dxCgWrFExVhSN2HtH8I/5oUSDiopgB1ETxfJDRey9KxqTWGPBiomgInZBVOwFezf2PvIN7yx7dzfee303z7yBye7dc86c6TPnJEz+5xAWLP+fP3+Ws2fPyunTp+Xo0aMyc+ZMGTBggCQkJCj269dPwL59+yqa32acubNmzZJjx44pjXPnzsnXr1+DZcOa71eA27dvy/bt22XUqFHSrl07qVmzpoSFhYUUa9WqpbTHjBmje927d89i0N+LpwBv376V1atXK9GiRYu6mC1RooSUK1dONY5go0ePVpw4caJaZNWqVZKamqq4cuVKmTFjhiQlJVnzWINFoAEtp0KKFy8uXbp0kXXr1snHjx9/K4NLgB07dkjVqlUtovny5ZO6devKlClTZN68eXLjxg15+fKlZGVl/ZZwIIPQgNbNmzeV9tSpU6VOnTqSP39+a38svnv37mzJ+QiApow2YHru3Lly+fLlbBfn1MCVK1dkzpw5Urt2bYufZcuWeW5nCfD06VPBdAUKFFA3IFj/Nnz69EkmTZokeEHZsmXl3bt3LpYsAa5du6bSli9fPiTu4drpDz88fPhQSpUqJYUKFZJnz565qFgCXL9+XcLDw1UITLd27Vq/AeSiFsIPxMfSpUulWrVqylNUVJQ8f/7ctYOnACYOYmJiZMSIEZKeni4vXrxwLQ71h8ePH+tegwcPlujoaMv/8+TJIyVLlvQvABNbtmyphcZIboQpXbq0IBApcOHChbJkyRI5c+aMvHnzxgfxWyeQCp3zTpw4IYsWLVJaQ4cOVdqRkZEW0+xLfZg/f740bNhQvcOvBVjUuXNn3f/Dhw+qDSxQo0YNDSQjjP1ZpEgRYWOD1atXl+bNm0vHjh0VmzVrpto04zwLFy7sw6ihhwuz19ixY2Xfvn1ilBEbG6v7ByRAhw4dnAqUnz9/Cqlt69atsmLFCmWsTZs20qJFCylTpownM4Ypr2eFChXU0tDo2rWrFixoUw/YywmNGjXS2hCQAFTAYACiJ0+eDApxp2AgYAvkzZtX0A7azi2AcgjgYsWK+Q9ik0YpaOPGjRNS69+CS5cuybBhw6RgwYLqogGnUTKR8VuqMsFItjh06JDkZHV+//69Bi6tNl2v4YFnUGm0bdu2kpaWppnEToR3cjPNVv/+/WXx4sWKFLyLFy9q9ab4+EP6fzpds75Pnz5Ks1KlSj5M487t27cXmkv6MpQZUBB36tRJvYZscP78ea0JELJ3qE7B+E1bTIrE1E7Ehxnzap3ttFBQt27ddE9cyACpnXn0a07wqcRMwmW8gFPTkSNHZMuWLdqlQrR169bSqlUradCggfYqdma83jlbkBJZw9ru3burJaB5/Phxr2312+vXr2XXrl1CbXKCSwC0/Sdw69YtwT3IGlRZO/INa969e9cvaWhs3LhR1q9fLxs2bJDMzMzfrvERgIMEVZIY+K/h8OHD0rRpU584MFbEwjt37vRkyUcAWlaziODKyMiQL1++eC4M5cdp06bpvgQq52I0f+rUKdm8ebNwSouIiNDx+Ph41wWAjwAQoPe29yr16tWTIUOGyN69e+XChQuh5FtpzZ49W5nr2bOn3Llzx5M+2QceUC5PO/gIwAQC6+rVqzJo0CBLcmMVnpwVEIpx+nWDKSkp2ssQcLQKJp3yG3zw4IEGIvONO9y/f1/TI0Ht1QPZGeW9V69eKsTBgwetIZcA9mYOybdt2yaTJ0+W+vXrS8WKFZWAXSDnO9UcC9Klgrgl1dReIEeOHKkMGK06Lfvjxw/p3bu3DBw40EcwzgukYgRmDuASILs0ymSTSgnyTZs2aann/ADSmTZp0kR7d84NnCdAenpSJ2O02RRKbja+f/8uVapU0THlxPYHa5ByaWmcEBcXp0p89eqVDlkCmDMxZfzfAszRdoDZuQbVG+uNHz/e2o5TH3dB3I7QvCEENyOkVHOgp+1mHWkZsATAPJiaQOZiKqeBq0UYmTBhgrUV2cfpkuY3N4TAgQMHdM6ePXv0tyUAmiIQzQLcguMclskJ4LYBDXP+NYCW0TZ3QsYC9Ez79++3fJ7LNXg014+WAIYIQeu8/ySwyc8QQnO4SCigcePG2iOZgLTTJPgRwgnEE4FsXMolAAtobZOTkzVt2WuCsU7lypW1QyQwhw8fLtyaLV++PCAkA5EAANZA0+vWLTExUdasWeMTQ9Qi5rOnAU8BzCDPJ0+e6Fl4+vTpeuFK20u3aYT5kyeZiYz27ds3rSsoyQSlfW/7OzHAZTA3dI8ePbKG/ApgzfznhU25LcCdiBmDaJHcTar0Qv5PwDmA+dxcmxaFGkCrQAIh+3DZawcEJS5MO8FVvx2CFsC+OFTvdKDc/WBNGOUqpkePHlqwqBV85zyCCzkhVwgAUwQymuZARTXHIjwJ2gULFmhcOpnnd64RwM4c/2AxaP/u9Z4rBfBiNLtvvwA4uY2TXQ3xdAAAAABJRU5ErkJggg==;" parent="1" vertex="1">
          <mxGeometry x="-70" y="375" width="37.89" height="30" as="geometry" />
        </mxCell>
        <mxCell id="IlQXqACcSyshX6tL7N-D-103" value="" style="endArrow=none;dashed=1;html=1;fontSize=10;" parent="1" edge="1">
          <mxGeometry width="50" height="50" relative="1" as="geometry">
            <mxPoint x="27.89" y="390" as="sourcePoint" />
            <mxPoint x="-32.11" y="390.5" as="targetPoint" />
          </mxGeometry>
        </mxCell>
        <mxCell id="IlQXqACcSyshX6tL7N-D-104" value="&lt;div style=&quot;color: rgb(0 , 0 , 0) ; font-family: &amp;#34;helvetica&amp;#34; ; font-size: 12px ; font-style: normal ; font-weight: 400 ; letter-spacing: normal ; text-indent: 0px ; text-transform: none ; word-spacing: 0px ; background-color: rgb(248 , 249 , 250) ; text-align: left&quot;&gt;&lt;span style=&quot;font-size: 8px&quot;&gt;*입력정보&lt;/span&gt;&lt;/div&gt;&lt;font style=&quot;color: rgb(0 , 0 , 0) ; font-family: &amp;#34;helvetica&amp;#34; ; font-style: normal ; font-weight: 400 ; letter-spacing: normal ; text-align: center ; text-indent: 0px ; text-transform: none ; word-spacing: 0px ; background-color: rgb(248 , 249 , 250) ; font-size: 8px&quot;&gt;&lt;div style=&quot;text-align: left&quot;&gt;&lt;span&gt;기업명, 한줄소개, 소개이미지, 기업설립일&lt;/span&gt;&lt;/div&gt;&lt;div style=&quot;text-align: left&quot;&gt;&lt;span&gt;비즈니스분야, 활용기술, 희망투자단계, 희망투자금액&lt;/span&gt;&lt;/div&gt;&lt;div style=&quot;text-align: left&quot;&gt;&lt;span&gt;대표자명, 직원수, 기업설립일, 홈페이지, 기업주소&lt;/span&gt;&lt;/div&gt;&lt;div style=&quot;text-align: left&quot;&gt;&lt;span&gt;IR/사업계획서, 사업자등록번호, 사업자등록증&lt;/span&gt;&lt;/div&gt;&lt;div style=&quot;text-align: left&quot;&gt;투자일자, 투자단계, 투자금액&lt;/div&gt;&lt;div style=&quot;text-align: left&quot;&gt;&lt;span&gt;서비스명, 한줄소개, 소개이미지&amp;nbsp;&lt;/span&gt;&lt;/div&gt;&lt;div style=&quot;text-align: left&quot;&gt;IR자료요청 ON/OFF&lt;/div&gt;&lt;/font&gt;" style="text;whiteSpace=wrap;html=1;fontSize=10;" parent="1" vertex="1">
          <mxGeometry x="-200" y="85" width="270" height="100" as="geometry" />
        </mxCell>
        <mxCell id="IlQXqACcSyshX6tL7N-D-105" value="&lt;div style=&quot;color: rgb(0 , 0 , 0) ; font-family: &amp;#34;helvetica&amp;#34; ; font-style: normal ; font-weight: 400 ; letter-spacing: normal ; text-indent: 0px ; text-transform: none ; word-spacing: 0px ; background-color: rgb(248 , 249 , 250) ; text-align: left&quot;&gt;&lt;span style=&quot;font-size: 8px&quot;&gt;*입력정보&lt;/span&gt;&lt;/div&gt;&lt;div style=&quot;text-indent: 0px ; background-color: rgb(248 , 249 , 250) ; text-align: left&quot;&gt;&lt;font face=&quot;helvetica&quot;&gt;&lt;span style=&quot;font-size: 8px&quot;&gt;투자사명, 투자사 로고, 대표자명, 투자사설립일, 홈페이지, 투자사종류, 포트폴리오(투자중인 기업명, 비즈니스분야, 활용기술, 투자단계, 투자금액, 투자년월), 희망투자단계, 비즈니스분야, 관심기술&lt;/span&gt;&lt;/font&gt;&lt;br&gt;&lt;/div&gt;&lt;font style=&quot;color: rgb(0 , 0 , 0) ; font-family: &amp;#34;helvetica&amp;#34; ; font-style: normal ; font-weight: 400 ; letter-spacing: normal ; text-align: center ; text-indent: 0px ; text-transform: none ; word-spacing: 0px ; background-color: rgb(248 , 249 , 250) ; font-size: 8px&quot;&gt;&lt;div style=&quot;text-align: left&quot;&gt;투자검토요청 ON/OFF&lt;/div&gt;&lt;/font&gt;" style="text;whiteSpace=wrap;html=1;fontSize=10;" parent="1" vertex="1">
          <mxGeometry x="-120" y="410" width="270" height="100" as="geometry" />
        </mxCell>
        <mxCell id="uy9oQvPBv09rISK1fp1f-1" value="미팅일 제안(달력)" style="text;html=1;resizable=0;autosize=1;align=center;verticalAlign=middle;points=[];fillColor=none;strokeColor=none;rounded=0;fontSize=10;" parent="1" vertex="1">
          <mxGeometry x="360" y="240" width="90" height="20" as="geometry" />
        </mxCell>
        <mxCell id="uy9oQvPBv09rISK1fp1f-2" value="추가자료요청(+코멘트)" style="text;html=1;resizable=0;autosize=1;align=center;verticalAlign=middle;points=[];fillColor=none;strokeColor=none;rounded=0;fontSize=10;" parent="1" vertex="1">
          <mxGeometry x="228.75" y="235" width="120" height="20" as="geometry" />
        </mxCell>
        <mxCell id="uy9oQvPBv09rISK1fp1f-3" value="미팅일 제안(달력)" style="text;html=1;resizable=0;autosize=1;align=center;verticalAlign=middle;points=[];fillColor=none;strokeColor=none;rounded=0;fontSize=10;" parent="1" vertex="1">
          <mxGeometry x="640" y="355" width="90" height="20" as="geometry" />
        </mxCell>
        <mxCell id="uy9oQvPBv09rISK1fp1f-4" value="추가자료요청(+코멘트)" style="text;html=1;resizable=0;autosize=1;align=center;verticalAlign=middle;points=[];fillColor=none;strokeColor=none;rounded=0;fontSize=10;" parent="1" vertex="1">
          <mxGeometry x="500" y="355" width="120" height="20" as="geometry" />
        </mxCell>
        <mxCell id="uy9oQvPBv09rISK1fp1f-5" value="IR자료전달/검토" style="text;html=1;resizable=0;autosize=1;align=center;verticalAlign=middle;points=[];fillColor=none;strokeColor=none;rounded=0;fontSize=10;" parent="1" vertex="1">
          <mxGeometry x="405" y="350" width="90" height="20" as="geometry" />
        </mxCell>
        <mxCell id="uy9oQvPBv09rISK1fp1f-6" value="" style="edgeStyle=orthogonalEdgeStyle;rounded=0;orthogonalLoop=1;jettySize=auto;html=1;" parent="1" edge="1">
          <mxGeometry relative="1" as="geometry">
            <mxPoint x="821.25" y="69.5" as="sourcePoint" />
            <mxPoint x="871.25" y="69.5" as="targetPoint" />
          </mxGeometry>
        </mxCell>
        <mxCell id="uy9oQvPBv09rISK1fp1f-7" value="투자확정" style="rounded=0;whiteSpace=wrap;html=1;" parent="1" vertex="1">
          <mxGeometry x="990" y="50" width="100" height="40" as="geometry" />
        </mxCell>
        <mxCell id="uy9oQvPBv09rISK1fp1f-8" value="투자PT" style="text;html=1;resizable=0;autosize=1;align=center;verticalAlign=middle;points=[];fillColor=none;strokeColor=none;rounded=0;fontSize=10;" parent="1" vertex="1">
          <mxGeometry x="821.25" y="40" width="50" height="20" as="geometry" />
        </mxCell>
        <mxCell id="uy9oQvPBv09rISK1fp1f-9" value="" style="edgeStyle=orthogonalEdgeStyle;rounded=0;orthogonalLoop=1;jettySize=auto;html=1;" parent="1" edge="1">
          <mxGeometry relative="1" as="geometry">
            <mxPoint x="650" y="269.5" as="sourcePoint" />
            <mxPoint x="700" y="269.5" as="targetPoint" />
          </mxGeometry>
        </mxCell>
        <mxCell id="uy9oQvPBv09rISK1fp1f-10" value="투자확정" style="rounded=0;whiteSpace=wrap;html=1;" parent="1" vertex="1">
          <mxGeometry x="812.5" y="250" width="100" height="40" as="geometry" />
        </mxCell>
        <mxCell id="uy9oQvPBv09rISK1fp1f-11" value="투자PT" style="text;html=1;resizable=0;autosize=1;align=center;verticalAlign=middle;points=[];fillColor=none;strokeColor=none;rounded=0;fontSize=10;" parent="1" vertex="1">
          <mxGeometry x="650" y="240" width="50" height="20" as="geometry" />
        </mxCell>
        <mxCell id="uy9oQvPBv09rISK1fp1f-12" value="" style="edgeStyle=orthogonalEdgeStyle;rounded=0;orthogonalLoop=1;jettySize=auto;html=1;" parent="1" edge="1">
          <mxGeometry relative="1" as="geometry">
            <mxPoint x="927" y="389.5" as="sourcePoint" />
            <mxPoint x="977" y="389.5" as="targetPoint" />
          </mxGeometry>
        </mxCell>
        <mxCell id="uy9oQvPBv09rISK1fp1f-13" value="투자확정" style="rounded=0;whiteSpace=wrap;html=1;" parent="1" vertex="1">
          <mxGeometry x="1090" y="370" width="100" height="40" as="geometry" />
        </mxCell>
        <mxCell id="uy9oQvPBv09rISK1fp1f-14" value="투자PT" style="text;html=1;resizable=0;autosize=1;align=center;verticalAlign=middle;points=[];fillColor=none;strokeColor=none;rounded=0;fontSize=10;" parent="1" vertex="1">
          <mxGeometry x="927" y="360" width="50" height="20" as="geometry" />
        </mxCell>
        <mxCell id="uy9oQvPBv09rISK1fp1f-16" value="" style="edgeStyle=orthogonalEdgeStyle;rounded=0;orthogonalLoop=1;jettySize=auto;html=1;" parent="1" source="uy9oQvPBv09rISK1fp1f-15" target="uy9oQvPBv09rISK1fp1f-7" edge="1">
          <mxGeometry relative="1" as="geometry" />
        </mxCell>
        <mxCell id="uy9oQvPBv09rISK1fp1f-19" style="edgeStyle=orthogonalEdgeStyle;rounded=0;orthogonalLoop=1;jettySize=auto;html=1;entryX=1;entryY=0.5;entryDx=0;entryDy=0;" parent="1" source="uy9oQvPBv09rISK1fp1f-15" target="IlQXqACcSyshX6tL7N-D-11" edge="1">
          <mxGeometry relative="1" as="geometry">
            <Array as="points">
              <mxPoint x="906" y="190" />
            </Array>
          </mxGeometry>
        </mxCell>
        <mxCell id="uy9oQvPBv09rISK1fp1f-15" value="투자확정여부" style="rhombus;whiteSpace=wrap;html=1;rounded=0;fontSize=10;" parent="1" vertex="1">
          <mxGeometry x="871.25" y="35" width="70" height="70" as="geometry" />
        </mxCell>
        <mxCell id="uy9oQvPBv09rISK1fp1f-17" value="YES" style="text;html=1;resizable=0;autosize=1;align=center;verticalAlign=middle;points=[];fillColor=none;strokeColor=none;rounded=0;" parent="1" vertex="1">
          <mxGeometry x="932" y="40" width="40" height="20" as="geometry" />
        </mxCell>
        <mxCell id="uy9oQvPBv09rISK1fp1f-18" value="NO" style="text;html=1;resizable=0;autosize=1;align=center;verticalAlign=middle;points=[];fillColor=none;strokeColor=none;rounded=0;" parent="1" vertex="1">
          <mxGeometry x="920" y="100" width="30" height="20" as="geometry" />
        </mxCell>
        <mxCell id="uy9oQvPBv09rISK1fp1f-21" value="" style="edgeStyle=orthogonalEdgeStyle;rounded=0;orthogonalLoop=1;jettySize=auto;html=1;" parent="1" source="uy9oQvPBv09rISK1fp1f-20" target="uy9oQvPBv09rISK1fp1f-10" edge="1">
          <mxGeometry relative="1" as="geometry" />
        </mxCell>
        <mxCell id="uy9oQvPBv09rISK1fp1f-22" style="edgeStyle=orthogonalEdgeStyle;rounded=0;orthogonalLoop=1;jettySize=auto;html=1;entryX=0.5;entryY=1;entryDx=0;entryDy=0;" parent="1" source="uy9oQvPBv09rISK1fp1f-20" target="IlQXqACcSyshX6tL7N-D-11" edge="1">
          <mxGeometry relative="1" as="geometry" />
        </mxCell>
        <mxCell id="uy9oQvPBv09rISK1fp1f-20" value="투자확정여부" style="rhombus;whiteSpace=wrap;html=1;rounded=0;fontSize=10;" parent="1" vertex="1">
          <mxGeometry x="700" y="235" width="70" height="70" as="geometry" />
        </mxCell>
        <mxCell id="uy9oQvPBv09rISK1fp1f-23" value="YES" style="text;html=1;resizable=0;autosize=1;align=center;verticalAlign=middle;points=[];fillColor=none;strokeColor=none;rounded=0;fontSize=10;" parent="1" vertex="1">
          <mxGeometry x="755" y="285" width="40" height="20" as="geometry" />
        </mxCell>
        <mxCell id="uy9oQvPBv09rISK1fp1f-24" value="NO" style="text;html=1;resizable=0;autosize=1;align=center;verticalAlign=middle;points=[];fillColor=none;strokeColor=none;rounded=0;fontSize=10;" parent="1" vertex="1">
          <mxGeometry x="740" y="220" width="30" height="20" as="geometry" />
        </mxCell>
        <mxCell id="uy9oQvPBv09rISK1fp1f-27" value="" style="edgeStyle=orthogonalEdgeStyle;rounded=0;orthogonalLoop=1;jettySize=auto;html=1;" parent="1" source="uy9oQvPBv09rISK1fp1f-26" target="uy9oQvPBv09rISK1fp1f-13" edge="1">
          <mxGeometry relative="1" as="geometry" />
        </mxCell>
        <mxCell id="uy9oQvPBv09rISK1fp1f-29" style="edgeStyle=orthogonalEdgeStyle;rounded=0;orthogonalLoop=1;jettySize=auto;html=1;" parent="1" source="uy9oQvPBv09rISK1fp1f-26" edge="1">
          <mxGeometry relative="1" as="geometry">
            <mxPoint x="210" y="420" as="targetPoint" />
            <Array as="points">
              <mxPoint x="1015" y="540" />
              <mxPoint x="210" y="540" />
            </Array>
          </mxGeometry>
        </mxCell>
        <mxCell id="uy9oQvPBv09rISK1fp1f-26" value="투자확정여부" style="rhombus;whiteSpace=wrap;html=1;rounded=0;fontSize=10;" parent="1" vertex="1">
          <mxGeometry x="980" y="355" width="70" height="70" as="geometry" />
        </mxCell>
        <mxCell id="uy9oQvPBv09rISK1fp1f-28" value="YES" style="text;html=1;resizable=0;autosize=1;align=center;verticalAlign=middle;points=[];fillColor=none;strokeColor=none;rounded=0;fontSize=10;" parent="1" vertex="1">
          <mxGeometry x="1045" y="360" width="40" height="20" as="geometry" />
        </mxCell>
        <mxCell id="uy9oQvPBv09rISK1fp1f-30" value="NO" style="text;html=1;resizable=0;autosize=1;align=center;verticalAlign=middle;points=[];fillColor=none;strokeColor=none;rounded=0;fontSize=10;" parent="1" vertex="1">
          <mxGeometry x="1025" y="425" width="30" height="20" as="geometry" />
        </mxCell>
      </root>
    </mxGraphModel>
  </diagram>
</mxfile>
